<?xml version="1.0" encoding="UTF-8" standalone="no"?>
<svg
   xmlns:dc="http://purl.org/dc/elements/1.1/"
   xmlns:cc="http://creativecommons.org/ns#"
   xmlns:rdf="http://www.w3.org/1999/02/22-rdf-syntax-ns#"
   xmlns:svg="http://www.w3.org/2000/svg"
   xmlns="http://www.w3.org/2000/svg"
   width="1800.7916pt"
   height="529pt"
   viewBox="0 0 1800.7916 529"
   version="1.1"
   id="svg2">
  <metadata
     id="metadata210">
    <rdf:RDF>
      <cc:Work
         rdf:about="">
        <dc:format>image/svg+xml</dc:format>
        <dc:type
           rdf:resource="http://purl.org/dc/dcmitype/StillImage" />
        <dc:title></dc:title>
      </cc:Work>
    </rdf:RDF>
  </metadata>
  <defs
     id="defs208" />
  <g
     id="g4781">
    <path
       style="fill:#285397"
       id="path6"
       d="m 77.61,0 1645.8,0 c 16.73,1.51 33.07,7.78 46.13,18.43 19.89,15.84 31.83,41.12 31.23,66.57 -0.04,120.66 -0.01,241.32 -0.02,361.98 -0.23,18.75 -7.17,37.25 -19.09,51.69 -14.18,17.4 -35.6,28.53 -57.97,30.33 L 76.54,529 C 57.52,527.23 39.08,519.04 25.43,505.6 10.64,491.5 1.59,471.81 0,451.47 L 0,77.55 C 1.69,55.81 12.04,34.86 28.55,20.58 42.12,8.64 59.62,1.43 77.61,0 Z" />
    <path
       style="fill:#fbfcfd"
       id="path10"
       d="m 874.91,40.55 c 128.3,-14.69 258.43,-10.42 386.04,8.61 112.15,16.76 222.43,45.08 329.45,82.43 0.67,4.25 1.28,8.51 2.04,12.75 -2.52,4.32 -7.9,5.54 -12.22,7.32 -38.9,-13.23 -78.01,-25.98 -117.6,-37.01 C 1366.61,87.63 1268.4,68.17 1169.13,58.26 1038.16,45.15 905.22,49.19 775.76,73.51 c 161.63,-0.06 323.25,0.05 484.87,-0.05 0.05,0.57 0.14,1.72 0.19,2.29 -176.32,2.09 -352.64,4.4 -528.95,6.62 -26.24,5.35 -52.17,12.23 -78.01,19.27 172.3,0.27 344.61,0.01 516.91,0.13 0,0.48 0.01,1.45 0.01,1.93 -182.2,2.54 -364.41,4.53 -546.61,6.92 -19.39,5.59 -38.64,11.97 -57.56,19.06 174.13,0.17 348.26,0.02 522.39,0.07 0,0.56 0,1.69 0,2.25 -172.65,1.98 -345.29,4.3 -517.93,6.34 -10,0.41 -20.04,-0.13 -30.01,0.66 -16.03,5.71 -31.7,12.41 -47.47,18.8 24.45,0.46 48.91,0.07 73.37,0.2 116.33,0 232.67,0 349,0 31.76,0.09 63.52,-0.17 95.27,0.13 -0.18,0.41 -0.54,1.24 -0.72,1.65 -8.29,0.92 -16.66,0.16 -24.97,0.61 -168.17,2.11 -336.33,4.23 -504.5,6.37 -3.43,0.12 -7.08,-0.57 -10.28,1 -13.12,5.88 -26.16,11.93 -39.12,18.14 159.2,0.23 318.41,0.03 477.62,0.1 -0.01,0.56 -0.03,1.69 -0.04,2.25 -160.7,2.08 -321.41,4.44 -482.12,6.62 -5.75,0.79 -12.12,-1.34 -17.35,1.85 -24.86,12.76 -49.58,25.85 -73.53,40.24 3.3,-4.94 4.73,-10.84 7.98,-15.8 2.33,-3.79 6.77,-5.28 10.36,-7.56 C 513.91,121.53 691.99,61.61 874.91,40.55 Z" />
    <path
       style="fill:#ffee00;fill-opacity:1"
       id="path12"
       d="m 1599.89,111.18 c 0.57,-0.29 1.71,-0.88 2.27,-1.17 9.97,9.53 19.75,19.27 29.67,28.86 12.07,-6.53 24.37,-12.66 36.43,-19.22 0.37,0.61 1.11,1.83 1.48,2.43 -6.16,12.01 -11.94,24.19 -18.03,36.22 10.07,10.1 20.43,19.9 30.6,29.89 -1.71,0.64 -3.41,1.43 -5.23,0.93 -12.63,-1.83 -25.25,-3.76 -37.9,-5.51 -5,9.9 -9.76,19.93 -14.76,29.83 -1.57,2.98 -2.59,6.64 -5.93,8.12 -2.4,-14.04 -4.71,-28.1 -7.04,-42.15 -13.37,-1.92 -26.72,-3.92 -40.08,-5.85 -0.33,-0.61 -0.97,-1.82 -1.29,-2.43 12.21,-6.42 24.43,-12.82 36.67,-19.17 -2.34,-13.59 -4.6,-27.18 -6.86,-40.78 z" />
    <path
       style="fill:#fbfcfd"
       id="path14"
       d="m 286.97,169.75 c 13.83,0.2 27.67,-0.4 41.39,-2.15 0.77,0.65 1.55,1.29 2.34,1.94 0.15,14.41 0,28.82 0.07,43.22 -0.75,0.72 -1.5,1.45 -2.24,2.18 -11.12,-1.51 -22.35,-2.06 -33.57,-2.19 -29.13,0 -58.27,0.04 -87.4,-0.01 -0.1,21.17 -0.08,42.34 -0.01,63.52 22.5,-0.04 44.99,-0.02 67.48,-0.01 11.84,-0.19 23.7,-0.49 35.45,-2.09 1.66,-0.51 2.82,0.93 4.08,1.74 -0.15,13.73 0.02,27.47 -0.07,41.21 0.31,1.66 -1.36,2.53 -2.22,3.66 -10.69,-1.65 -21.51,-2.03 -32.3,-2.27 -24.15,0.01 -48.31,0 -72.46,0.01 -0.01,24.17 0,48.33 -0.01,72.5 0.22,11.7 0.63,23.43 2.41,35.02 -0.65,0.74 -1.29,1.48 -1.94,2.22 -15.41,0.03 -30.82,-0.06 -46.22,0.04 -0.69,-1.29 -1.79,-2.55 -1.31,-4.12 1.84,-12.97 2.13,-26.11 2.05,-39.2 0.01,-57.68 0.01,-115.35 0,-173.02 0.19,-12.37 -0.36,-24.75 -1.94,-37.02 -0.51,-2.2 -0.31,-4.44 1.41,-6.06 10,0.42 20,0.98 30.01,0.88 31.67,0 63.34,0 95,0 z" />
    <path
       style="fill:#fbfcfd"
       id="path16"
       d="m 1132.57,176.77 c 22.79,-2.1 46.01,0.79 67.73,7.97 6,2.14 12.08,4.26 17.67,7.35 2.08,1.19 1.73,3.87 1.82,5.9 -0.15,11.9 0.16,23.81 -0.15,35.71 -0.44,4.21 -6.15,4.36 -9.03,2.78 -16.38,-13.93 -37.04,-23.57 -58.71,-24.6 -13.17,-0.7 -27.38,1.49 -37.9,10.02 -6.2,4.81 -10.3,12.24 -10.82,20.09 -0.68,9.32 1.47,19.72 8.78,26.13 8.71,8.27 20.98,10.29 32.16,13.22 16.01,4.14 32.51,7.02 47.72,13.75 10.88,4.96 21.02,12.35 27.44,22.61 8.9,13.85 11.17,31.06 9.08,47.15 -2.52,16.75 -10.38,33 -23.26,44.21 -8.07,7.06 -17.44,12.64 -27.54,16.27 -10.11,3.57 -20.87,4.84 -31.54,5.16 -15.1,0.23 -30.35,-0.68 -45.04,-4.35 -12.82,-3.4 -25.27,-8.12 -37.23,-13.82 -1.8,-0.76 -3.74,-2.06 -3.64,-4.25 -0.28,-12.36 -0.01,-24.73 -0.13,-37.09 0,-2.29 -0.07,-5.38 2.44,-6.45 2.53,-0.93 5.8,-0.86 7.75,1.26 16.86,15.71 38.75,26.2 61.71,28.67 12.35,0.87 25.3,0.27 36.71,-5 9.07,-4.15 16.44,-12.44 18.35,-22.36 1.62,-8.33 0.86,-17.37 -3.16,-24.93 -3.94,-7.09 -11.25,-11.51 -18.75,-14 -15.39,-4.95 -31.34,-7.86 -46.91,-12.14 -13.24,-3.63 -26.49,-8.98 -36.56,-18.59 -9.84,-8.93 -16.36,-21.28 -18.66,-34.33 -2.78,-16.4 -1.12,-34.09 7.55,-48.57 12.81,-21.9 37.16,-35.48 62.12,-37.77 z" />
    <path
       style="fill:#fbfcfd"
       id="path18"
       d="m 945.07,185.83 c -0.22,-2.73 2.3,-4.83 4.93,-4.57 29.98,-0.05 59.97,0 89.96,-0.03 2.32,-0.21 5.38,1.03 5.25,3.79 0.08,8.31 0.08,16.62 0,24.93 0.23,2.33 -2.04,4.03 -4.21,3.79 -8.59,0.08 -17.17,-0.02 -25.75,0.03 0,59.99 0,119.99 0,179.98 8.6,0.06 17.2,-0.1 25.8,0.05 2.24,-0.09 4.53,1.78 4.17,4.17 0.06,7.99 0.05,16 0.01,23.99 0.37,2.44 -1.79,4.65 -4.23,4.26 -30.67,0.04 -61.34,0.07 -92,-0.01 -2.8,0.23 -4.12,-2.77 -3.97,-5.13 -0.01,-7.73 -0.18,-15.48 0.09,-23.2 -0.06,-2.56 2.44,-4.35 4.86,-4.1 8.4,-0.09 16.81,-0.02 25.21,0 0.11,-60.01 0.02,-120.01 0.04,-180.01 -9,-0.12 -18.02,0.19 -27.01,-0.13 -2.69,-0.32 -3.3,-3.43 -3.21,-5.65 0.01,-7.38 -0.11,-14.78 0.06,-22.16 z" />
    <path
       style="fill:#fbfcfd"
       id="path20"
       d="m 1232.79,186.04 c -0.29,-2.91 2.39,-5.14 5.18,-4.79 62.69,-0.01 125.39,-0.03 188.09,0.01 2.67,-0.35 5.25,1.84 4.92,4.62 0.02,9.39 0.07,18.79 -0.02,28.18 0.04,2.52 -2.51,4.26 -4.86,3.95 -24.78,-0.01 -49.56,-0.01 -74.34,-0.01 -0.02,68.02 0.03,136.04 -0.02,204.06 0.28,2.56 -2.22,4.59 -4.67,4.2 -10.39,-0.04 -20.78,0.06 -31.15,-0.05 -2.76,0.18 -4.31,-2.77 -3.93,-5.19 0.02,-67.67 0,-135.35 0.01,-203.02 -25.05,-0.03 -50.09,0.06 -75.13,-0.04 -2.59,0.06 -4.34,-2.53 -4.08,-4.94 -0.07,-8.99 -0.09,-17.99 0,-26.98 z" />
    <path
       style="fill:#fbfcfd"
       id="path22"
       d="m 1442.5,185.98 c -0.42,-2.59 1.8,-4.89 4.38,-4.7 16.37,-0.1 32.75,-0.01 49.12,-0.04 14.94,-0.06 29.94,-0.03 44.77,2.05 20.55,3 40.22,15.05 50.52,33.35 5.28,9.17 7.27,19.83 7.65,30.3 0.42,16.21 -3,33.01 -12.38,46.48 -8.37,12.18 -20.55,21.36 -33.95,27.36 26.6,32.61 53.18,65.24 79.75,97.87 2.66,2.31 1.47,7.56 -2.35,7.56 -13.01,0.13 -26.03,-0.03 -39.04,0.07 -1.99,-0.06 -4.42,0.32 -5.63,-1.64 -24.53,-30.85 -48.99,-61.77 -73.5,-92.64 -9.87,0 -19.73,-0.01 -29.6,0.01 -0.01,30 0.06,60.01 -0.03,90.02 0.23,2.28 -1.81,4.47 -4.13,4.19 -10.35,0.08 -20.71,0.02 -31.06,0.02 -2.43,0.37 -4.85,-1.76 -4.5,-4.25 -0.05,-78.67 -0.02,-157.34 -0.02,-236.01 z" />
    <path
       style="fill:#fbfcfd"
       id="path24"
       d="m 823.58,211.66 c 1.02,-0.83 1.84,-2.4 3.41,-2.14 10.67,-0.1 21.35,0.04 32.03,-0.05 2.95,0.12 6.62,-0.8 8.49,2.2 -1.66,14.04 -2.14,28.2 -2,42.33 12.41,-0.05 24.92,0.48 37.21,-1.67 0.57,0.49 1.71,1.46 2.28,1.95 0,11.48 0,22.95 0,34.43 -0.54,0.49 -1.62,1.48 -2.16,1.97 -12.35,-2.14 -24.89,-1.68 -37.36,-1.65 0.06,29.65 -0.01,59.3 0.03,88.95 0.21,4.56 0.76,9.87 4.61,12.91 4.3,3.01 9.91,3.08 14.95,2.7 5.75,-0.45 10.85,-3.37 15.84,-5.99 1.01,0.49 2.02,0.99 3.04,1.5 1.73,10.33 3.22,20.7 5.12,31 -0.8,0.81 -1.39,1.9 -2.44,2.42 -14.39,6.06 -30.38,6.48 -45.73,5.28 -10.5,-1.07 -21.67,-4.83 -27.99,-13.81 -6.87,-9.81 -7.5,-22.34 -7.42,-33.91 0.03,-30.35 -0.03,-60.7 0.03,-91.05 -10.99,-0.1 -22.06,-0.32 -32.91,1.71 -1.01,-1.09 -2.43,-2.07 -2.09,-3.76 -0.05,-10.96 -0.05,-21.92 0.02,-32.88 0.58,-0.44 1.75,-1.32 2.33,-1.76 10.75,2.08 21.73,1.63 32.62,1.66 0.21,-14.14 -0.34,-28.29 -1.91,-42.34 z" />
    <path
       style="fill:#285397"
       id="path26"
       d="m 1482.24,217.01 c 10.57,0.01 21.14,-0.05 31.71,0.02 11.16,0.41 23.19,1.56 32.33,8.67 7.52,5.61 10.9,15.18 11.2,24.29 0.31,10.48 -1.21,21.52 -7.09,30.44 -4.63,7.19 -12.02,12.53 -20.36,14.49 -15.64,3.72 -31.82,2.26 -47.74,2.6 -0.11,-26.84 0,-53.68 -0.05,-80.51 z" />
    <path
       style="fill:#fbfcfd"
       id="path28"
       d="m 522.11,248.13 c 18.32,-1.59 37.48,0.9 53.68,10.02 13.51,7.4 24.31,19.32 30.9,33.2 8.88,18.47 10.9,39.56 8.9,59.75 -2.05,19.78 -9.59,39.51 -23.67,53.87 -12.29,12.79 -29.31,20.5 -46.83,22.63 -20.25,2.28 -41.73,-0.55 -59.31,-11.38 -14.31,-8.59 -25.1,-22.38 -31.06,-37.87 -6.82,-17.55 -8.18,-36.86 -6.15,-55.46 2.25,-19.59 9.97,-39.13 24.35,-52.98 13.03,-12.98 31.03,-20.14 49.19,-21.78 z" />
    <path
       style="fill:#fbfcfd"
       id="path30"
       d="m 397.25,259.31 c 16.16,-6.37 34.11,-4.84 50.75,-1.37 2.19,0.12 3.18,2.75 2.4,4.59 -3.02,11.21 -5.89,22.47 -8.99,33.66 -0.68,2.9 -4.04,2.54 -6.17,1.63 -11.67,-3.72 -24.63,-5.4 -36.36,-1.05 -9.27,3.3 -16.08,11.09 -20.72,19.49 -4.6,9.15 -5.31,19.64 -4.91,29.71 0.42,26.05 -1.2,52.2 1.67,78.15 0.52,1.71 -0.66,2.98 -1.64,4.22 -13.41,-0.22 -26.83,-0.01 -40.24,-0.11 -0.6,-0.76 -1.2,-1.51 -1.8,-2.26 2.92,-24.56 1.77,-49.32 2,-73.98 0,-20.34 -0.01,-40.69 0.01,-61.03 -0.13,-10.23 -0.47,-20.48 -1.97,-30.62 0.5,-0.58 1.51,-1.75 2.02,-2.34 12.6,-0.01 25.2,0.01 37.8,-0.01 0.71,0.69 1.43,1.39 2.15,2.09 0.01,6.26 -0.02,12.53 0.01,18.8 5.85,-8.71 14.15,-15.79 23.99,-19.57 z" />
    <path
       style="fill:#fbfcfd"
       id="path32"
       d="m 707.88,256.35 c 16.12,-2.43 33.58,-1.56 48.04,6.66 12.2,6.88 20.97,19.33 23.55,33.08 2.36,11.47 2.01,23.25 2.03,34.89 0,20.33 0.01,40.66 0,60.99 -0.1,10.73 0.42,21.48 1.84,32.12 0.66,2.02 -1,4.61 -3.25,4.15 -13.02,0.03 -26.04,0.02 -39.05,-0.01 -0.61,-0.76 -1.21,-1.52 -1.8,-2.27 2.75,-22.53 1.85,-45.26 2,-67.9 -0.04,-12.34 0.08,-24.68 -0.05,-37.03 -0.37,-7.96 -0.88,-16.65 -5.96,-23.21 -5.42,-6.94 -14.9,-9.32 -23.34,-8.4 -8.81,0.79 -17,5.1 -23.32,11.17 -7.88,7.5 -13.39,17.06 -18.01,26.8 -2.69,4.74 -1.18,10.36 -1.56,15.53 0.43,27.75 -1.34,55.68 2.39,83.27 -1.05,0.75 -1.85,2.25 -3.34,2.03 -13,0.09 -26,0 -39,0.03 -0.46,-0.57 -1.38,-1.7 -1.84,-2.27 3.66,-26.82 1.84,-53.96 2.29,-80.94 -0.46,-28.26 1.38,-56.66 -2.24,-84.78 0.51,-0.56 1.52,-1.69 2.02,-2.26 12.6,-0.02 25.2,0.03 37.8,-0.02 0.64,0.63 1.28,1.26 1.93,1.9 -0.03,7.09 -0.01,14.17 -0.01,21.25 9.69,-12.29 23.11,-22.35 38.88,-24.78 z" />
    <path
       style="fill:#285397"
       id="path34"
       d="m 523.54,282.78 c 11.99,-2.07 25.25,-0.1 34.98,7.6 10.51,8.28 15.25,21.68 16.92,34.55 1.72,14.37 1.19,29.47 -4.48,42.98 -3.82,9.11 -10.64,17.17 -19.69,21.38 -11.3,5.3 -24.82,5.5 -36.39,0.91 -9.98,-3.97 -17.62,-12.54 -21.71,-22.33 -5.18,-12.23 -6.15,-25.83 -5.06,-38.94 1.11,-11.93 4.61,-24.12 12.55,-33.36 5.81,-6.79 14.1,-11.26 22.88,-12.79 z" />
    <path
       style="fill:#fbfcfd"
       id="path38"
       d="m 163.81,457.23 c 1.97,0 3.94,0.01 5.91,0.01 -0.45,8.66 -0.14,17.34 -0.18,26 5.41,-0.01 10.84,0.11 16.25,-0.26 -0.03,1.77 -0.06,3.55 -0.09,5.33 -7.28,-0.48 -14.61,-0.42 -21.9,-0.08 0.32,-10.32 0.31,-20.67 0.01,-31 z" />
    <path
       style="fill:#fbfcfd"
       id="path40"
       d="m 370.13,457.17 c 1.89,0.04 3.78,0.07 5.68,0.11 -0.47,10.22 -0.5,20.48 0.01,30.69 -1.92,0.02 -3.83,0.03 -5.74,0.04 0.29,-10.27 0.2,-20.56 0.05,-30.84 z" />
    <path
       style="fill:#fbfcfd"
       id="path42"
       d="m 418.26,457 c 4.96,0.42 9.94,0.1 14.91,0.29 3.61,0.03 7.34,2.25 8.37,5.84 1.26,4.32 0.22,10.01 -4.12,12.22 -4.25,2.03 -9.13,1.26 -13.67,1.42 -0.05,3.74 0.07,7.49 0.37,11.23 -1.95,-0.01 -3.89,-0.01 -5.83,0 0.32,-10.33 0.37,-20.68 -0.03,-31 z" />
    <path
       style="fill:#fbfcfd"
       id="path44"
       d="m 513.19,457.2 c 1.87,0.01 3.74,0.01 5.62,0.01 -0.04,10.26 -0.17,20.53 0.07,30.79 -1.91,-0.01 -3.82,-0.01 -5.72,0 0.15,-10.26 0.09,-20.53 0.03,-30.8 z" />
    <path
       style="fill:#fbfcfd"
       id="path46"
       d="m 523.59,457.26 c 1.91,-0.01 3.83,-0.02 5.75,-0.03 -0.55,10.24 -0.51,20.53 -0.01,30.77 -1.92,-0.01 -3.84,-0.01 -5.74,0 0.27,-10.24 0.26,-20.5 0,-30.74 z" />
    <path
       style="fill:#fbfcfd"
       id="path48"
       d="m 558.6,457.23 c 1.9,0.01 3.8,0.02 5.7,0.04 -0.49,10.23 -0.44,20.5 -0.01,30.73 -1.91,-0.01 -3.81,-0.01 -5.7,0 0.28,-10.25 0.24,-20.52 0.01,-30.77 z" />
    <path
       style="fill:#fbfcfd"
       id="path50"
       d="m 582.21,457.03 c 7.01,0.34 14.03,0.33 21.04,-0.06 -0.01,1.76 -0.01,3.53 -0.01,5.3 -5.15,-0.37 -10.32,-0.26 -15.48,-0.27 0,2.66 0,5.33 0,8 4.49,-0.02 8.99,0.08 13.49,-0.2 -0.01,1.74 -0.01,3.49 0,5.24 -4.49,-0.31 -8.99,-0.33 -13.48,-0.27 -0.07,4.41 -0.03,8.83 0.3,13.24 -1.96,-0.01 -3.91,-0.02 -5.85,-0.03 0.45,-10.3 0.45,-20.65 -0.01,-30.95 z" />
    <path
       style="fill:#fbfcfd"
       id="path52"
       d="m 606.72,457.28 c 1.92,-0.03 3.85,-0.04 5.78,-0.05 0,1.67 -0.01,3.34 0,5.02 -1.92,-0.01 -3.82,-0.01 -5.73,-0.01 -0.02,-1.66 -0.04,-3.31 -0.05,-4.96 z" />
    <path
       style="fill:#fbfcfd"
       id="path54"
       d="m 643,457.24 c 1.99,-0.01 3.99,-0.01 5.99,-0.01 0,1.67 0,3.34 0.01,5.02 -2,-0.01 -4.01,-0.01 -6,0 -0.01,-1.68 -0.01,-3.35 0,-5.01 z" />
    <path
       style="fill:#fbfcfd"
       id="path56"
       d="m 707.98,457.01 c 7.25,0.39 14.53,0.34 21.78,-0.04 -0.01,1.72 0,3.46 0.01,5.19 -5.43,-0.26 -10.87,-0.17 -16.31,-0.1 0.03,2.56 0.04,5.12 0.05,7.68 4.83,0.06 9.66,0.02 14.49,-0.29 -0.01,1.72 -0.01,3.45 0,5.18 -4.83,-0.21 -9.66,-0.12 -14.49,-0.12 -0.01,2.9 -0.01,5.81 0,8.72 5.49,-0.02 11,0.15 16.49,-0.19 -0.01,1.74 -0.01,3.48 0,5.23 -7.33,-0.4 -14.68,-0.4 -22,-0.03 0.38,-10.4 0.4,-20.83 -0.02,-31.23 z" />
    <path
       style="fill:#fbfcfd"
       id="path58"
       d="m 734.05,457.21 c 1.89,0.02 3.8,0.03 5.71,0.06 -0.41,10.22 -0.44,20.48 0.03,30.7 -1.93,0.02 -3.86,0.03 -5.77,0.04 0.38,-10.25 0.32,-20.54 0.03,-30.8 z" />
    <path
       style="fill:#fbfcfd"
       id="path60"
       d="m 897.81,457.62 c 2.02,-0.84 4.56,-0.23 6.78,-0.39 3.91,10.29 7.7,20.62 11.96,30.77 -2.18,-0.01 -4.35,0 -6.51,0 -0.79,-2.8 -1.74,-5.56 -2.79,-8.26 -4.02,0.02 -8.04,0 -12.05,0.06 -0.95,2.72 -1.9,5.43 -2.71,8.19 -2.2,0.01 -4.38,0.01 -6.56,0.02 4.42,-9.94 7.83,-20.3 11.88,-30.39 z" />
    <path
       style="fill:#fbfcfd"
       id="path62"
       d="m 969.46,457.35 c 1.92,-0.06 3.86,-0.1 5.8,-0.12 -0.44,10.24 -0.38,20.52 -0.02,30.77 -1.92,-0.01 -3.83,-0.01 -5.71,0 0.32,-10.21 0.44,-20.45 -0.07,-30.65 z" />
    <path
       style="fill:#fbfcfd"
       id="path64"
       d="m 1027,457.24 c 1.99,-0.01 3.99,-0.01 6,0 -0.01,1.66 -0.02,3.33 0,5.01 -2.01,-0.01 -4.01,-0.01 -6,0 -0.02,-1.68 -0.01,-3.35 0,-5.01 z" />
    <path
       style="fill:#fbfcfd"
       id="path66"
       d="m 1081.39,457.45 c 6.01,-2.18 13.72,-0.7 17.36,4.9 3.67,5.79 3.64,13.72 0.46,19.71 -4.8,8.88 -19.52,9.01 -24.43,0.2 -4.48,-8.11 -2.95,-21.13 6.61,-24.81 z" />
    <path
       style="fill:#fbfcfd"
       id="path68"
       d="m 1199.62,458.65 c 6.55,-4.43 18.13,-2.45 19.67,6.38 -1.89,0.24 -3.75,0.48 -5.6,0.74 -1.19,-4.39 -6.78,-5.97 -10.3,-3.39 -2.08,1.35 -1.88,4.75 0.35,5.84 4.26,1.97 9.52,1.56 13.26,4.71 4.22,4 3.02,12.4 -2.56,14.59 -4.6,1.81 -10.02,1.68 -14.46,-0.51 -3.03,-1.59 -4.2,-5 -4.82,-8.14 1.88,-0.2 3.79,-0.39 5.7,-0.59 0.51,5.51 7.69,7.43 11.61,4.15 1.95,-1.59 1.64,-5.13 -0.58,-6.33 -4.03,-1.97 -8.97,-1.6 -12.65,-4.33 -4.07,-3.17 -3.83,-10.18 0.38,-13.12 z" />
    <path
       style="fill:#fbfcfd"
       id="path70"
       d="m 1254.99,457.94 c 3.04,-1.98 6.9,-1.06 10.29,-0.77 -0.32,1.45 -0.63,2.92 -0.92,4.38 -1.9,-0.23 -4.15,-1.49 -5.83,-0.05 -0.65,1.32 -0.78,2.8 -1.05,4.22 2.16,-0.01 4.33,-0.08 6.52,-0.18 -0.02,1.55 -0.02,3.11 0,4.67 -2.09,-0.12 -4.17,-0.21 -6.24,-0.26 0.04,6.01 -0.17,12.04 0.25,18.05 -1.9,-0.01 -3.77,-0.01 -5.64,0 0.23,-6.02 0.08,-12.04 0.12,-18.06 -1.68,0.07 -3.34,0.15 -4.99,0.25 -0.02,-1.55 -0.02,-3.1 -0.01,-4.64 1.59,0.08 3.21,0.18 4.84,0.27 0.37,-2.72 0,-6.19 2.66,-7.88 z" />
    <path
       style="fill:#fbfcfd"
       id="path72"
       d="m 1463.08,457.22 c 1.92,0 3.85,-0.01 5.79,-0.03 -0.15,4.08 -0.12,8.16 -0.13,12.25 5.07,0.09 10.15,0.03 15.23,0.08 0.08,-4.13 0,-8.26 -0.26,-12.37 1.92,0.07 3.87,0.13 5.83,0.21 -0.51,10.2 -0.41,20.45 -0.05,30.65 -1.96,-0.01 -3.89,-0.02 -5.81,-0.01 0.35,-4.49 0.34,-9 0.32,-13.49 -5.09,-0.01 -10.16,-0.01 -15.23,0 -0.02,4.49 -0.08,8.99 0.11,13.49 -1.96,-0.01 -3.9,-0.01 -5.82,0 0.31,-10.25 0.26,-20.52 0.02,-30.78 z" />
    <path
       style="fill:#fbfcfd"
       id="path74"
       d="m 1494.84,457 c 7.2,0.39 14.44,0.35 21.66,-0.03 -0.02,1.71 -0.01,3.42 0.01,5.15 -5.35,-0.19 -10.69,-0.12 -16.03,-0.08 0.01,2.56 0.01,5.13 0.03,7.7 4.73,0.05 9.48,0.04 14.22,-0.28 -0.01,1.69 0.04,3.4 0.07,5.11 -4.77,-0.11 -9.53,-0.07 -14.29,-0.06 -0.02,2.9 -0.02,5.81 0,8.72 5.49,-0.02 10.99,0.16 16.49,-0.21 -0.02,1.75 -0.02,3.5 0,5.26 -7.38,-0.4 -14.78,-0.43 -22.14,-0.03 0.56,-10.4 0.61,-20.85 -0.02,-31.25 z" />
    <path
       style="fill:#fbfcfd"
       id="path76"
       d="m 1524,460.97 c 4.39,-5.17 12.75,-5.79 18.37,-2.34 2.69,1.52 3.97,4.44 5.14,7.15 -1.86,0.41 -3.64,0.94 -5.51,1.16 -1.01,-1.34 -1.66,-2.93 -2.86,-4.1 -3.61,-2.79 -9.57,-1.56 -11.61,2.58 -2.24,4.33 -2.26,9.86 -0.08,14.22 1.91,3.81 6.9,5.39 10.72,3.5 2.38,-0.89 3.11,-3.51 4.01,-5.62 1.88,0.32 3.78,0.65 5.69,1 -1.05,3.3 -2.53,6.88 -5.83,8.49 -6.41,3.26 -15.92,2.2 -19.58,-4.6 -3.42,-6.66 -3.11,-15.44 1.54,-21.44 z" />
    <path
       style="fill:#fbfcfd"
       id="path78"
       d="m 1567.72,457.28 c 2.36,-0.04 4.72,-0.04 7.1,-0.06 2.73,7.82 5.96,15.48 9.32,23.06 3.08,-7.67 6.55,-15.2 9.1,-23.06 2.37,0.01 4.75,0.01 7.15,0 -0.24,10.25 -0.21,20.52 -0.02,30.78 -1.86,-0.01 -3.68,-0.01 -5.49,0 0.53,-7.36 0.28,-14.74 0.41,-22.11 -2.84,7.44 -6.41,14.59 -8.98,22.13 -1.54,-0.01 -3.07,-0.02 -4.57,-0.02 -2.55,-7.87 -6.32,-15.27 -9.18,-23.02 1,7.63 0.04,15.35 0.64,23.02 -1.84,-0.01 -3.65,-0.01 -5.45,0 0.37,-10.23 0.43,-20.5 -0.03,-30.72 z" />
    <path
       style="fill:#fbfcfd"
       id="path80"
       d="m 1603.41,457.22 c 2.07,0.01 4.17,0.02 6.28,0.04 1.43,7.38 3.48,14.61 5.17,21.93 2.14,-7.29 4.34,-14.57 6.21,-21.94 1.57,-0.02 3.16,-0.03 4.77,-0.03 1.94,7.6 4.43,15.04 6.33,22.66 1.22,-7.66 3.77,-15.02 5.08,-22.66 2.07,0.01 4.15,0.02 6.26,0.02 -3.08,10.21 -5.88,20.5 -8.66,30.8 -1.72,-0.02 -3.44,0 -5.12,-0.11 -2.27,-7.29 -4.33,-14.66 -6.3,-22.04 -1.76,7.43 -4.29,14.64 -5.99,22.08 -1.79,0.01 -3.57,0.03 -5.32,0.05 -2.91,-10.27 -5.51,-20.62 -8.71,-30.8 z" />
    <path
       style="fill:#fbfcfd"
       id="path82"
       d="m 656.09,459.75 c 1.89,-0.01 3.77,-0.01 5.68,0 -0.12,2.01 -0.25,4.03 -0.33,6.05 1.85,-0.07 3.7,-0.15 5.56,-0.25 -0.01,1.55 -0.01,3.11 0,4.67 -1.83,-0.11 -3.67,-0.21 -5.48,-0.28 0,4.77 -0.19,9.56 0.28,14.32 1.72,-0.17 3.45,-0.38 5.18,-0.62 0.21,1.48 0.41,2.97 0.63,4.46 -3.52,0.27 -8.57,1.77 -10.75,-1.95 -1.31,-5.28 -0.33,-10.84 -0.62,-16.23 -1.57,0.1 -3.13,0.22 -4.69,0.35 -0.04,-1.57 -0.07,-3.13 -0.09,-4.68 1.6,0.07 3.2,0.14 4.83,0.21 -0.06,-2.03 -0.12,-4.04 -0.2,-6.05 z" />
    <path
       style="fill:#fbfcfd"
       id="path84"
       d="m 860.98,459.75 c 1.91,0 3.8,-0.01 5.73,0 -0.13,2.01 -0.21,4.03 -0.27,6.05 1.85,-0.07 3.7,-0.15 5.56,-0.25 -0.01,1.56 -0.01,3.12 0,4.69 -1.84,-0.12 -3.67,-0.23 -5.49,-0.31 0.09,4.33 -0.26,8.67 0.15,12.98 0.57,2.48 3.62,0.76 5.28,0.78 0.18,1.46 0.38,2.92 0.58,4.39 -3.57,0.35 -9.24,1.87 -10.94,-2.47 -0.79,-5.18 -0.15,-10.47 -0.34,-15.7 -1.67,0.11 -3.3,0.25 -4.94,0.39 -0.05,-1.59 -0.08,-3.17 -0.1,-4.75 1.7,0.09 3.39,0.17 5.11,0.25 -0.1,-2.02 -0.21,-4.04 -0.33,-6.05 z" />
    <path
       style="fill:#fbfcfd"
       id="path86"
       d="m 1270.44,459.73 c 1.86,0.01 3.75,0.02 5.64,0.03 -0.13,2 -0.27,4 -0.4,6 1.85,-0.05 3.7,-0.12 5.57,-0.2 -0.02,1.55 -0.02,3.1 0,4.66 -1.84,-0.11 -3.67,-0.21 -5.48,-0.28 -0.01,4.73 -0.18,9.47 0.29,14.19 1.72,-0.07 3.44,-0.19 5.19,-0.31 0.23,1.39 0.46,2.78 0.72,4.18 -3.51,0.48 -9,1.91 -10.88,-2.14 -1.12,-5.2 -0.45,-10.56 -0.55,-15.83 -1.61,0.03 -3.21,0.09 -4.79,0.17 -0.01,-1.57 -0.01,-3.12 0.01,-4.68 1.56,0.1 3.15,0.2 4.75,0.29 -0.03,-2.03 -0.05,-4.06 -0.07,-6.08 z" />
    <path
       style="fill:#285397"
       id="path88"
       d="m 1084.54,461.69 c 3.89,-1.2 8.57,0.77 10.04,4.68 2.01,4.88 1.78,11.28 -1.91,15.33 -3.98,3.99 -11.45,2.29 -13.42,-2.95 -2.51,-5.76 -1.49,-14.82 5.29,-17.06 z" />
    <path
       style="fill:#285397"
       id="path90"
       d="m 423.77,461.76 c 3.33,0.06 6.75,-0.33 10.02,0.52 3.9,1.67 3.45,8.52 -0.8,9.43 -3.05,0.53 -6.16,0.23 -9.23,0.28 0,-3.41 0,-6.82 0.01,-10.23 z" />
    <path
       style="fill:#285397"
       id="path92"
       d="m 896.72,475.23 c 1.45,-4.23 2.85,-8.48 4.58,-12.61 1.53,4.19 3.04,8.4 4.57,12.61 -3.06,0.01 -6.1,0.01 -9.15,0 z" />
    <path
       style="fill:#fbfcfd"
       id="path94"
       d="m 187.66,471.55 c 1.35,-3.49 4.46,-6.15 8.28,-6.4 4.21,-0.52 10.49,-0.11 11.76,4.89 0.74,5.95 -0.02,11.98 0.48,17.96 -1.81,-0.01 -3.62,-0.01 -5.42,0 0.01,-0.46 0.04,-1.39 0.05,-1.86 -3.55,2.35 -8.36,3.34 -12.26,1.29 -4.07,-2.2 -3.88,-8.62 -0.16,-11.05 3.65,-2.39 8.2,-2.19 12.37,-2.49 0.02,-0.77 0.06,-2.31 0.08,-3.08 -2.35,-2.51 -6.68,-2.68 -8.93,0.06 -1.44,2.39 -4.11,0.84 -6.25,0.68 z" />
    <path
       style="fill:#fbfcfd"
       id="path96"
       d="m 218,468.19 c 3,-2.77 7.07,-3.38 10.98,-2.67 -0.37,1.69 -0.76,3.37 -1.14,5.06 -3.32,-0.61 -7.67,-0.68 -9.15,3.07 -0.97,4.69 -0.29,9.58 -0.32,14.35 -1.88,-0.01 -3.75,-0.01 -5.63,0 0.39,-7.41 0.39,-14.84 0.01,-22.25 1.86,0 3.72,0 5.58,0.01 -0.08,0.61 -0.24,1.82 -0.33,2.43 z" />
    <path
       style="fill:#fbfcfd"
       id="path98"
       d="m 261.38,467.25 c 4.51,-3.58 12.11,-2.97 15.53,1.84 1.92,2.64 2.01,6.03 2.43,9.15 -5.7,0.04 -11.41,-0.05 -17.12,0.07 0.7,2.23 1.36,4.95 3.9,5.75 3.27,1.53 6.72,-0.55 8.37,-3.41 1.59,0.5 3.19,1.01 4.78,1.53 -3.08,7.23 -13.58,8.95 -18.99,3.46 -4.36,-5.08 -4.18,-14 1.1,-18.39 z" />
    <path
       style="fill:#fbfcfd"
       id="path100"
       d="m 302.25,466.22 c 5.24,-2.47 13.65,-1.39 15.07,5.21 -1.7,0.19 -3.39,0.38 -5.08,0.56 -1.31,-2.72 -4.74,-4.03 -7.33,-2.2 -1.46,0.52 -1.38,2.88 -0.03,3.39 3.36,1.57 7.37,1.42 10.54,3.46 3.66,2.25 3.19,8.29 -0.45,10.34 -5.87,3.36 -15.62,2.25 -17.56,-5.27 1.79,-0.29 3.59,-0.56 5.4,-0.8 1.22,1.86 2.6,4.02 5.2,3.63 2.41,0.63 6.28,-1.97 3.92,-4.38 -3.48,-1.89 -7.87,-1.52 -11.16,-3.88 -3.46,-2.47 -2.43,-8.58 1.48,-10.06 z" />
    <path
       style="fill:#fbfcfd"
       id="path102"
       d="m 323.4,468.45 c 5.14,-5.88 16.42,-4.13 18.65,3.73 -1.61,0.38 -3.21,0.76 -4.82,1.13 -1.38,-2.08 -3.26,-4.66 -6.13,-4.03 -7.55,1.25 -6.99,15.25 0.97,15.26 2.64,0.19 4.2,-2.04 5.35,-4.05 1.63,0.3 3.27,0.6 4.91,0.93 -2.16,8.27 -14.18,9.94 -19.27,3.58 -3.53,-4.73 -3.4,-11.98 0.34,-16.55 z" />
    <path
       style="fill:#fbfcfd"
       id="path104"
       d="m 344.98,471.39 c 1.44,-2.88 3.78,-5.46 7.11,-5.99 4.36,-0.85 10.42,-0.78 12.76,3.74 1.35,6.2 0.27,12.62 0.77,18.91 -1.9,-0.5 -5.38,1.2 -5.69,-1.74 -3.7,2.37 -8.93,3.29 -12.68,0.56 -3.53,-2.62 -2.75,-8.56 0.88,-10.73 3.72,-2.16 8.2,-1.94 12.36,-2.27 -0.49,-1.52 -0.07,-3.71 -1.85,-4.43 -3.06,-1.46 -7.12,-0.22 -8.48,3.01 -1.73,-0.34 -3.46,-0.69 -5.18,-1.06 z" />
    <path
       style="fill:#fbfcfd"
       id="path106"
       d="m 381.1,470.19 c 3.42,-6.44 13.76,-7.05 18,-1.19 1.99,2.64 2.05,6.09 2.5,9.24 -5.69,0.03 -11.37,-0.02 -17.05,0.03 0.48,2.53 1.61,5.36 4.43,6 3.12,1.1 6.19,-0.89 7.67,-3.59 1.62,0.47 3.24,0.97 4.86,1.48 -2.99,7.06 -12.96,8.86 -18.55,3.92 -4.06,-4.08 -4.43,-10.93 -1.86,-15.89 z" />
    <path
       style="fill:#fbfcfd"
       id="path108"
       d="m 444.75,471.56 c 2.19,-6.58 10.41,-7.78 16.19,-5.7 2.06,0.8 3.88,2.67 3.96,4.98 0.32,5.71 -0.14,11.45 0.35,17.16 -1.77,-0.01 -3.52,-0.01 -5.27,0 0.02,-0.52 0.06,-1.55 0.08,-2.06 -3.55,2.62 -8.53,3.53 -12.54,1.44 -3.9,-2.23 -3.66,-8.53 -0.08,-10.96 3.74,-2.51 8.5,-2.21 12.8,-2.53 -0.49,-1.65 -0.24,-4.18 -2.36,-4.67 -3.12,-1.1 -6.59,0.16 -8.04,3.16 -1.71,-0.28 -3.4,-0.55 -5.09,-0.82 z" />
    <path
       style="fill:#fbfcfd"
       id="path110"
       d="m 475.07,468.51 c 2.84,-3.19 7.19,-3.82 11.18,-2.78 -0.53,1.65 -1.05,3.31 -1.58,4.97 -3.19,-0.91 -7.57,-0.64 -8.86,3.01 -1.17,4.64 -0.43,9.55 -0.33,14.29 -1.89,-0.01 -3.77,-0.01 -5.65,0 0.28,-7.41 0.22,-14.84 0.04,-22.25 1.8,0 3.61,0 5.43,0 -0.06,0.69 -0.17,2.07 -0.23,2.76 z" />
    <path
       style="fill:#fbfcfd"
       id="path112"
       d="m 488.11,471.42 c 1.56,-3.53 4.84,-6.21 8.8,-6.32 4.05,-0.41 10.04,0.07 11.24,4.86 0.88,5.98 -0.03,12.08 0.54,18.1 -1.88,-0.52 -5.43,1.18 -5.74,-1.68 -3.57,2.24 -8.4,3.07 -12.18,0.87 -3.66,-2.29 -3.54,-8.12 -0.18,-10.64 3.69,-2.71 8.54,-2.38 12.88,-2.74 -0.39,-1.55 -0.06,-3.72 -1.85,-4.45 -3.08,-1.51 -6.89,-0.05 -8.36,3.01 -1.73,-0.33 -3.45,-0.66 -5.15,-1.01 z" />
    <path
       style="fill:#fbfcfd"
       id="path114"
       d="m 534.78,469.96 c 3.58,-6.34 14.04,-6.76 18.03,-0.65 1.82,2.6 1.88,5.89 2.31,8.93 -5.73,0.04 -11.46,-0.06 -17.18,0.08 0.69,2.65 2,5.69 5.1,6.1 3.09,0.82 5.66,-1.36 7.23,-3.77 1.57,0.48 3.15,0.98 4.73,1.49 -2.99,7.22 -13.37,8.95 -18.85,3.64 -3.78,-4.2 -4.14,-10.99 -1.37,-15.82 z" />
    <path
       style="fill:#fbfcfd"
       id="path116"
       d="m 622.27,468.89 c 1.96,-1.61 4.01,-3.45 6.69,-3.55 3.77,-0.56 8.62,1.38 9.05,5.63 0.6,5.65 -0.06,11.36 0.42,17.03 -1.9,-0.01 -3.79,-0.01 -5.68,0 0.26,-5.03 0.45,-10.08 0.09,-15.1 0.03,-2.39 -2.65,-4 -4.79,-3.2 -2.58,0.65 -4.35,2.97 -5.3,5.33 -0.62,4.29 -0.18,8.66 0.09,12.97 -1.92,-0.01 -3.83,-0.01 -5.73,0 0.62,-7.41 0.5,-14.87 0.03,-22.28 1.81,0.01 3.62,0.03 5.45,0.05 -0.08,0.78 -0.24,2.34 -0.32,3.12 z" />
    <path
       style="fill:#fbfcfd"
       id="path118"
       d="m 673.28,467.24 c 4.57,-3.52 12.13,-3 15.59,1.85 1.95,2.63 2.02,6.03 2.39,9.15 -5.71,0.04 -11.41,-0.08 -17.11,0.11 0.71,2.22 1.47,4.91 3.98,5.71 3.26,1.47 6.74,-0.54 8.37,-3.42 1.57,0.51 3.16,1.05 4.74,1.58 -1.46,2.18 -2.98,4.54 -5.5,5.58 -5.13,2.24 -12.42,1.01 -15.07,-4.38 -2.47,-5.15 -1.98,-12.35 2.61,-16.18 z" />
    <path
       style="fill:#fbfcfd"
       id="path120"
       d="m 745.09,470.11 c 3.43,-6.38 13.74,-6.93 17.95,-1.1 2.02,2.63 2.1,6.08 2.42,9.24 -5.72,0.06 -11.44,-0.18 -17.15,0.19 0.84,2.36 1.84,5.33 4.71,5.84 3.18,1.09 6.17,-1.04 7.69,-3.71 1.58,0.55 3.17,1.11 4.76,1.69 -1.61,2.42 -3.43,5 -6.35,5.9 -4.45,1.39 -10.07,0.75 -13.13,-3.08 -3.18,-4.22 -3.29,-10.36 -0.9,-14.97 z" />
    <path
       style="fill:#fbfcfd"
       id="path122"
       d="m 774.38,468.1 c 3.7,-3.67 10.43,-4.11 13.59,0.52 2.47,-2.76 6.31,-4.17 9.95,-3.09 2.95,0.55 5.08,3.36 5.04,6.34 0.16,5.37 -0.16,10.76 0.36,16.13 -1.92,-0.01 -3.83,-0.01 -5.73,0 0.06,-5.5 0.63,-11.12 -0.22,-16.55 -2.14,-3.96 -7.82,-1.11 -8.33,2.59 -0.62,4.62 -0.25,9.31 -0.1,13.96 -1.9,-0.01 -3.79,-0.01 -5.68,0 0.21,-5.29 0.59,-10.65 -0.05,-15.92 -1.17,-4.11 -7.09,-2.5 -8.08,0.97 -1.32,4.83 -0.39,9.99 -0.54,14.95 -1.87,-0.01 -3.73,-0.01 -5.57,0 0.35,-7.41 0.34,-14.84 0,-22.25 1.83,0 3.66,0 5.51,0.01 -0.04,0.58 -0.11,1.75 -0.15,2.34 z" />
    <path
       style="fill:#fbfcfd"
       id="path124"
       d="m 808.37,470.48 c 3.16,-6.64 13.55,-7.4 17.97,-1.7 2.1,2.67 2.34,6.19 2.57,9.45 -5.68,0.06 -11.36,-0.07 -17.03,0.11 0.75,2.3 1.51,5.1 4.18,5.82 3.26,1.35 6.56,-0.79 8.2,-3.57 1.55,0.55 3.1,1.12 4.65,1.72 -3.1,7.04 -13.32,8.75 -18.74,3.52 -3.82,-3.99 -4.09,-10.53 -1.8,-15.35 z" />
    <path
       style="fill:#fbfcfd"
       id="path126"
       d="m 837.93,468.69 c 3.79,-4.54 12.98,-5.01 15.19,1.24 0.97,5.95 -0.09,12.07 0.72,18.07 -1.93,-0.01 -3.85,-0.01 -5.76,0 0.15,-5.28 0.4,-10.59 -0.02,-15.86 -0.66,-3.26 -5.15,-3.19 -7.12,-1.17 -5.01,4.17 -2.35,11.42 -2.78,17.03 -1.89,-0.01 -3.77,-0.01 -5.64,0 0.36,-7.41 0.35,-14.84 0.01,-22.25 1.82,-0.01 3.66,0 5.5,0 -0.02,0.73 -0.07,2.2 -0.1,2.94 z" />
    <path
       style="fill:#fbfcfd"
       id="path128"
       d="m 924.29,468.95 c 2.88,-3.25 7.63,-4.73 11.72,-2.95 2.54,0.86 4.11,3.42 4.13,6.05 0.32,5.31 -0.11,10.64 0.29,15.95 -1.9,-0.01 -3.79,-0.01 -5.68,0 0.26,-5.03 0.45,-10.09 0.09,-15.11 -0.02,-2.03 -1.83,-3.45 -3.78,-3.4 -3.05,0.31 -5.29,2.9 -6.33,5.61 -0.58,4.27 -0.15,8.61 0.12,12.9 -1.93,-0.01 -3.84,-0.01 -5.74,0 0.61,-7.4 0.53,-14.86 0.03,-22.27 1.79,0 3.58,0.01 5.38,0.01 -0.06,0.81 -0.17,2.41 -0.23,3.21 z" />
    <path
       style="fill:#fbfcfd"
       id="path130"
       d="m 944.56,471.57 c 2.07,-6.51 10.04,-7.71 15.75,-5.84 2.25,0.67 4.21,2.66 4.36,5.09 0.29,5.72 -0.15,11.46 0.35,17.18 -1.78,-0.01 -3.56,-0.01 -5.32,0 0.06,-0.51 0.19,-1.53 0.25,-2.04 -3.75,2.59 -8.92,3.61 -13.01,1.22 -3.62,-2.54 -3.19,-8.56 0.46,-10.88 3.76,-2.4 8.45,-2.05 12.72,-2.52 -0.64,-1.53 -0.42,-3.87 -2.31,-4.49 -3.13,-1.2 -6.78,0.02 -8.23,3.12 -1.68,-0.29 -3.36,-0.57 -5.02,-0.84 z" />
    <path
       style="fill:#fbfcfd"
       id="path132"
       d="m 1006.73,466.76 c 5.31,-3.19 14.24,-2.22 16.17,4.55 -1.76,0.25 -3.51,0.49 -5.25,0.72 -1.56,-3.99 -7.21,-3.91 -8.99,-0.17 3.37,2.93 8.15,2.48 11.92,4.55 4.02,2.22 3.45,8.89 -0.56,10.83 -5.87,3 -15.45,1.85 -17.05,-5.67 1.79,-0.22 3.59,-0.42 5.41,-0.6 1.16,3.06 4.42,4.36 7.48,3.26 2.1,-0.19 3.12,-3.19 1.17,-4.3 -3.39,-1.46 -7.31,-1.46 -10.49,-3.46 -3.37,-2.08 -3.08,-7.66 0.19,-9.71 z" />
    <path
       style="fill:#fbfcfd"
       id="path134"
       d="m 1040.53,466.46 c 5.34,-2.83 13.92,-1.74 15.67,4.94 -1.75,0.21 -3.5,0.41 -5.22,0.61 -1.35,-3.34 -6.43,-4.28 -8.35,-1.03 0.12,0.45 0.34,1.35 0.45,1.8 3.39,2.12 7.84,1.65 11.19,3.92 3.48,2.27 3.07,8.1 -0.4,10.17 -5.87,3.55 -15.8,2.39 -17.69,-5.22 1.79,-0.25 3.6,-0.5 5.42,-0.71 1.09,1.58 2.15,3.74 4.45,3.56 2.48,0.64 6.95,-1.24 4.85,-4.29 -3.51,-1.85 -7.82,-1.58 -11.16,-3.78 -3.51,-2.29 -2.82,-8.15 0.79,-9.97 z" />
    <path
       style="fill:#fbfcfd"
       id="path136"
       d="m 1111.02,467.84 c 4.35,-3.55 11.53,-3.82 15.4,0.59 3.31,4.37 3.39,10.84 0.79,15.58 -3.45,5.58 -11.93,5.49 -16.55,1.43 0.08,3.36 0.14,6.71 0.36,10.07 -1.86,-0.01 -3.72,-0.02 -5.56,-0.02 0.45,-9.9 0.45,-19.83 0.01,-29.73 1.67,-0.01 3.35,-0.01 5.05,-0.01 0.13,0.52 0.38,1.57 0.5,2.09 z" />
    <path
       style="fill:#fbfcfd"
       id="path138"
       d="m 1133.24,470.31 c 3.3,-6.47 13.6,-7.2 17.94,-1.45 2.13,2.63 2.2,6.17 2.54,9.4 -5.68,0 -11.35,-0.05 -17.02,0.02 0.6,2.42 1.56,5.25 4.32,5.91 3.17,1.21 6.45,-0.74 7.9,-3.58 1.59,0.52 3.19,1.05 4.8,1.6 -2.97,6.84 -12.47,8.71 -18.15,4.22 -4.47,-3.92 -4.83,-11.02 -2.33,-16.12 z" />
    <path
       style="fill:#fbfcfd"
       id="path140"
       d="m 1162.69,468.69 c 3.86,-4.58 13.03,-4.98 15.26,1.34 0.7,5.95 -0.02,12 0.68,17.97 -1.92,-0.01 -3.81,0 -5.7,0 0.05,-5.04 0.17,-10.08 0,-15.11 0.11,-2.46 -2.81,-4.04 -4.94,-3.16 -2.49,0.75 -4.24,3 -5.07,5.37 -0.43,4.28 -0.14,8.6 0.05,12.9 -1.9,-0.01 -3.79,-0.01 -5.66,0 0.29,-7.41 0.3,-14.83 -0.01,-22.24 1.82,-0.01 3.63,-0.02 5.48,-0.01 -0.02,0.73 -0.07,2.2 -0.09,2.94 z" />
    <path
       style="fill:#fbfcfd"
       id="path142"
       d="m 1230.42,465.54 c 3.29,-0.96 6.98,-0.64 10.02,0.97 7.82,4.43 7.09,18.3 -1.47,21.51 -5.1,1.86 -11.91,0.68 -14.74,-4.37 -3.45,-6.22 -1.45,-16.2 6.19,-18.11 z" />
    <path
       style="fill:#fbfcfd"
       id="path144"
       d="m 1316.74,471.55 c 2.2,-6.58 10.35,-7.76 16.14,-5.71 2.1,0.8 3.96,2.7 4.03,5.07 0.3,5.69 -0.15,11.4 0.34,17.09 -1.78,-0.01 -3.53,0 -5.27,0 0.02,-0.51 0.06,-1.54 0.08,-2.05 -3.54,2.6 -8.49,3.5 -12.49,1.46 -4.17,-2.34 -3.66,-9.18 0.41,-11.38 3.73,-2.04 8.13,-1.87 12.26,-2.14 -0.51,-1.63 -0.23,-4.12 -2.3,-4.66 -3.16,-1.14 -6.63,0.16 -8.16,3.14 -1.7,-0.27 -3.38,-0.55 -5.04,-0.82 z" />
    <path
       style="fill:#fbfcfd"
       id="path146"
       d="m 1347.08,468.54 c 2.77,-3.21 7.11,-3.82 11.08,-2.85 -0.44,1.62 -0.87,3.25 -1.27,4.89 -3.27,-0.61 -7.75,-0.67 -9.08,3.12 -1.18,4.64 -0.43,9.55 -0.33,14.3 -1.9,-0.01 -3.78,-0.01 -5.65,0 0.28,-7.41 0.22,-14.84 0.04,-22.25 1.79,0 3.6,0 5.42,0.01 -0.05,0.69 -0.16,2.08 -0.21,2.78 z" />
    <path
       style="fill:#fbfcfd"
       id="path148"
       d="m 1361.25,470.26 c 3.37,-6.66 14.22,-7.14 18.25,-0.9 1.84,2.58 1.89,5.86 2.17,8.9 -5.66,-0.01 -11.31,-0.05 -16.96,0.02 0.62,2.39 1.47,5.32 4.28,5.9 3.18,1.26 6.42,-0.76 7.94,-3.56 1.54,0.5 3.09,1.01 4.65,1.53 -2.81,7.22 -13.09,8.84 -18.55,3.8 -3.94,-4.07 -4.26,-10.79 -1.78,-15.69 z" />
    <path
       style="fill:#fbfcfd"
       id="path150"
       d="m 1404.53,465.65 c 3.28,-1.05 6.98,-0.82 10.1,0.7 7.94,4.19 7.53,17.96 -0.81,21.5 -4.84,1.93 -11.31,1.15 -14.53,-3.29 -4.22,-6.06 -2.53,-16.68 5.24,-18.91 z" />
    <path
       style="fill:#fbfcfd"
       id="path152"
       d="m 1429.15,469 c 3.61,-4.68 12.57,-5.46 15.24,0.49 1.36,6.05 0.14,12.36 0.81,18.51 -1.91,-0.01 -3.81,-0.01 -5.67,0 0.2,-5.22 0.53,-10.48 -0.02,-15.68 -0.18,-1.8 -1.9,-2.69 -3.5,-2.86 -3.18,0.32 -5.65,2.98 -6.59,5.88 -0.51,4.2 -0.05,8.45 0.21,12.66 -1.92,-0.01 -3.81,0 -5.69,0 0.47,-7.41 0.43,-14.85 0.01,-22.25 1.76,0 3.53,0 5.33,0.01 -0.03,0.81 -0.1,2.43 -0.13,3.24 z" />
    <path
       style="fill:#fbfcfd"
       id="path154"
       d="m 231.74,470.84 c 2.77,-6.21 11.69,-7.03 16.56,-2.89 -0.02,-0.55 -0.05,-1.65 -0.06,-2.2 1.76,0 3.53,0 5.29,0.01 -0.48,6.39 -0.19,12.8 -0.28,19.21 -0.01,3.39 -1.05,7.34 -4.32,8.99 -5.8,2.75 -13.46,2.49 -18.18,-2.25 1.36,-0.99 2.74,-1.97 4.12,-2.94 2.66,3.01 7.28,3.9 10.72,1.67 2.14,-1.26 2.28,-3.98 2.98,-6.1 -3.78,3.47 -9.83,4.25 -14.07,1.18 -4.39,-3.35 -4.61,-9.92 -2.76,-14.68 z" />
    <path
       style="fill:#fbfcfd"
       id="path156"
       d="m 606.75,465.75 c 1.89,0 3.79,0 5.7,0 -0.32,7.41 -0.32,14.84 0,22.25 -1.91,-0.01 -3.81,-0.01 -5.71,0 0.39,-7.41 0.38,-14.84 0.01,-22.25 z" />
    <path
       style="fill:#fbfcfd"
       id="path158"
       d="m 643.1,465.76 c 1.9,-0.02 3.8,-0.03 5.72,-0.04 -0.42,7.42 -0.47,14.86 0.04,22.28 -1.94,0 -3.86,-0.01 -5.78,0 0.27,-7.41 0.23,-14.83 0.02,-22.24 z" />
    <path
       style="fill:#fbfcfd"
       id="path160"
       d="m 977.79,465.75 c 1.99,-0.01 4,-0.01 6.02,0 1.75,5.13 4.01,10.06 6.19,15.02 1.98,-4.99 4.06,-9.95 5.76,-15.04 1.96,0.01 3.92,0.02 5.91,0.05 -3.35,7.95 -6.84,15.84 -10.13,23.82 -0.87,1.95 -1.76,4.17 -3.77,5.19 -2.61,1.35 -5.63,0.69 -8.39,0.58 0.24,-1.54 0.5,-3.07 0.76,-4.6 1.49,0.05 3.12,0.67 4.57,-0.01 1.18,-1.07 1.73,-2.65 2.57,-3.99 -3.05,-7.06 -6.36,-14 -9.49,-21.02 z" />
    <path
       style="fill:#fbfcfd"
       id="path162"
       d="m 1027.04,465.75 c 1.9,0 3.8,-0.01 5.72,0 -0.37,7.4 -0.46,14.83 0.04,22.22 -1.93,0.02 -3.85,0.03 -5.76,0.04 0.32,-7.41 0.31,-14.85 0,-22.26 z" />
    <path
       style="fill:#fbfcfd"
       id="path164"
       d="m 1282.42,465.76 c 1.94,-0.01 3.9,-0.02 5.87,-0.02 0.92,4.83 2.37,9.53 3.67,14.27 1.55,-4.72 3.23,-9.4 4.51,-14.21 1.41,-0.02 2.84,-0.04 4.3,-0.04 1.28,4.88 3.02,9.62 4.54,14.43 1.12,-4.83 2.71,-9.55 3.64,-14.43 1.94,-0.01 3.87,-0.02 5.83,-0.01 -2.4,7.38 -4.77,14.79 -6.94,22.25 -1.56,-0.01 -3.09,-0.01 -4.61,0 -1.31,-4.87 -2.96,-9.64 -4.61,-14.4 -1.66,4.76 -3.2,9.57 -4.62,14.41 -1.58,-0.02 -3.13,-0.02 -4.67,-0.02 -2.2,-7.44 -4.45,-14.87 -6.91,-22.23 z" />
    <path
       style="fill:#285397"
       id="path166"
       d="m 240.35,469.47 c 4.97,-1.57 8.9,4.26 7.42,8.73 -0.59,4.13 -5.84,6.95 -9.36,4.25 -3.96,-3.24 -3.27,-11.33 1.94,-12.98 z" />
    <path
       style="fill:#285397"
       id="path168"
       d="m 262.36,474.16 c 1.04,-2.76 3.42,-5.49 6.68,-4.88 2.77,0.07 4.14,2.72 5.15,4.92 -3.94,0.06 -7.89,0.07 -11.83,-0.04 z" />
    <path
       style="fill:#285397"
       id="path170"
       d="m 384.61,474.17 c 1.12,-2.6 3.18,-5.41 6.42,-4.92 2.86,-0.02 4.38,2.66 5.43,4.93 -3.95,0.09 -7.9,0.09 -11.85,-0.01 z" />
    <path
       style="fill:#285397"
       id="path172"
       d="m 538.15,474.17 c 1.03,-2.77 3.44,-5.55 6.71,-4.89 2.75,0.14 4.05,2.74 5.1,4.91 -3.94,0.07 -7.88,0.08 -11.81,-0.02 z" />
    <path
       style="fill:#285397"
       id="path174"
       d="m 674.33,474.19 c 1.02,-2.79 3.42,-5.54 6.72,-4.91 2.73,0.08 4.14,2.65 5.04,4.9 -3.93,0.09 -7.85,0.09 -11.76,0.01 z" />
    <path
       style="fill:#285397"
       id="path176"
       d="m 748.54,474.18 c 1.08,-2.66 3.25,-5.4 6.47,-4.94 2.85,-0.02 4.41,2.63 5.39,4.93 -3.96,0.1 -7.91,0.1 -11.86,0.01 z" />
    <path
       style="fill:#285397"
       id="path178"
       d="m 811.96,474.18 c 1.11,-2.45 2.97,-5.09 5.99,-4.97 3.03,-0.19 4.94,2.43 5.92,4.95 -3.97,0.12 -7.94,0.11 -11.91,0.02 z" />
    <path
       style="fill:#285397"
       id="path180"
       d="m 1136.87,474.2 c 0.94,-2.22 2.37,-4.75 5.1,-4.92 3.26,-0.68 5.7,2.07 6.67,4.88 -3.93,0.11 -7.86,0.1 -11.77,0.04 z" />
    <path
       style="fill:#285397"
       id="path182"
       d="m 1232.42,469.56 c 3.71,-1.29 7.81,1.67 7.98,5.54 1,4.24 -1.45,9.74 -6.42,9.44 -7.51,-0.26 -8.36,-12.91 -1.56,-14.98 z" />
    <path
       style="fill:#285397"
       id="path184"
       d="m 1364.69,474.19 c 1.12,-2.13 2.48,-4.68 5.19,-4.9 3.3,-0.74 5.74,2.07 6.76,4.87 -3.99,0.11 -7.97,0.11 -11.95,0.03 z" />
    <path
       style="fill:#285397"
       id="path186"
       d="m 1406.45,469.71 c 3.08,-1.28 7.03,0.35 7.97,3.64 1.79,4.28 0.02,11 -5.44,11.15 -7.74,0.43 -9.04,-12.2 -2.53,-14.79 z" />
    <path
       style="fill:#285397"
       id="path188"
       d="m 1114.34,470.47 c 3.17,-2.14 8,-0.45 8.9,3.33 1.76,4.29 -0.83,11.08 -6.26,10.2 -6.56,-0.44 -8.16,-10.46 -2.64,-13.53 z" />
    <path
       style="fill:#fbfcfd"
       id="path190"
       d="m 281.74,473.7 c 4.51,0.08 9.01,0.09 13.52,-0.04 -0.01,1.74 -0.01,3.49 -0.01,5.24 -4.5,-0.21 -9.01,-0.19 -13.51,-0.04 0,-1.73 0,-3.45 0,-5.16 z" />
    <path
       style="fill:#fbfcfd"
       id="path192"
       d="m 1550.18,478.88 c 0.01,-1.76 0.04,-3.51 0.07,-5.25 4.48,0.18 8.98,0.16 13.47,0.04 0.02,1.71 0.06,3.44 0.13,5.16 -4.56,-0.11 -9.12,-0.13 -13.67,0.05 z" />
    <path
       style="fill:#285397"
       id="path194"
       d="m 192.7,482 c 0.72,-4.71 6.8,-4 10.3,-4.51 -0.36,2.11 -0.3,4.88 -2.61,5.92 -2.33,1.61 -7.02,2.26 -7.69,-1.41 z" />
    <path
       style="fill:#285397"
       id="path196"
       d="m 350.56,480.46 c 2.17,-3.14 6.6,-2.42 9.9,-3.01 0.27,3.5 -1.99,6.71 -5.56,7.14 -2.4,0.91 -5.89,-1.5 -4.34,-4.13 z" />
    <path
       style="fill:#285397"
       id="path198"
       d="m 450.01,483.01 c -0.77,-5.64 6.56,-5.05 10.24,-5.57 0.82,5.31 -6.48,9.8 -10.24,5.57 z" />
    <path
       style="fill:#285397"
       id="path200"
       d="m 493.96,479.94 c 2.46,-2.48 6.31,-1.98 9.49,-2.49 0.69,4.52 -3.78,8.1 -8.01,7.07 -2.04,-0.41 -2.88,-3.06 -1.48,-4.58 z" />
    <path
       style="fill:#285397"
       id="path202"
       d="m 950.67,479.61 c 2.6,-2.08 6.22,-1.7 9.34,-2.15 0.29,4.33 -3.65,8.05 -7.96,7.1 -2.46,-0.19 -3.15,-3.54 -1.38,-4.95 z" />
    <path
       style="fill:#285397"
       id="path204"
       d="m 1321.99,483.03 c -0.76,-5.65 6.57,-5.08 10.26,-5.59 0.82,5.32 -6.49,9.78 -10.26,5.59 z" />
    <path
       id="path4338"
       d="m 1616.0114,198.54573 -2.8206,-19.81735 -20.61,-3.42385 -20.6101,-3.42386 18.3284,-9.17439 c 16.2843,-8.15118 18.153,-10.06792 16.7551,-17.18618 -0.8654,-4.40648 -2.5058,-13.71918 -3.6454,-20.69488 l -2.0719,-12.6831 14.6468,14.13621 14.6469,14.1362 17.439,-8.5529 c 9.5914,-4.70409 17.439,-7.80754 17.439,-6.89655 0,0.91098 -3.6817,8.92183 -8.1816,17.80188 l -8.1816,16.14554 15.3159,13.9431 15.3157,13.94309 -21.4133,-2.02759 -21.4133,-2.0276 -7.8764,17.80979 c -4.3319,9.79538 -8.4086,17.80978 -9.0592,17.80978 -0.6506,0 -2.4522,-8.91781 -4.0034,-19.81734 z"
       style="fill:#ffee00;fill-opacity:1" />
  </g>
</svg>
